<?xml version="1.0" encoding="UTF-8"?>
<!DOCTYPE svg PUBLIC "-//W3C//DTD SVG 1.1//EN" "http://www.w3.org/Graphics/SVG/1.1/DTD/svg11.dtd">
<svg xmlns="http://www.w3.org/2000/svg" version="1.1" width="236px" height="236px" style="shape-rendering:geometricPrecision; text-rendering:geometricPrecision; image-rendering:optimizeQuality; fill-rule:evenodd; clip-rule:evenodd" xmlns:xlink="http://www.w3.org/1999/xlink">
<g><path style="opacity:1" fill="#e8726b" d="M 103.5,10.5 C 106.625,9.52056 109.958,9.18723 113.5,9.5C 115.833,10.1667 118.167,10.8333 120.5,11.5C 117.167,11.5 113.833,11.5 110.5,11.5C 108.393,10.5318 106.059,10.1984 103.5,10.5 Z"/></g>
<g><path style="opacity:1" fill="#fef4f4" d="M 110.5,11.5 C 113.833,11.5 117.167,11.5 120.5,11.5C 125.87,11.3921 131.203,11.7255 136.5,12.5C 183.621,23.6205 213.287,52.6205 225.5,99.5C 226.127,104.141 226.46,108.807 226.5,113.5C 226.5,118.5 226.5,123.5 226.5,128.5C 221.647,171.07 199.98,201.57 161.5,220C 149.94,224.723 137.94,227.557 125.5,228.5C 120.833,228.5 116.167,228.5 111.5,228.5C 106.482,228.387 101.482,228.053 96.5,227.5C 45.4139,213.412 16.4139,180.079 9.5,127.5C 9.5,122.5 9.5,117.5 9.5,112.5C 13.7404,72.4386 33.4071,42.6052 68.5,23C 81.7348,16.3581 95.7348,12.5247 110.5,11.5 Z"/></g>
<g><path style="opacity:1" fill="#e55a47" d="M 113.5,9.5 C 122.314,9.03908 130.981,9.70575 139.5,11.5C 138.791,12.404 137.791,12.7373 136.5,12.5C 131.203,11.7255 125.87,11.3921 120.5,11.5C 118.167,10.8333 115.833,10.1667 113.5,9.5 Z"/></g>
<g><path style="opacity:1" fill="#e45945" d="M 103.5,10.5 C 106.059,10.1984 108.393,10.5318 110.5,11.5C 95.7348,12.5247 81.7348,16.3581 68.5,23C 33.4071,42.6052 13.7404,72.4386 9.5,112.5C 8.53178,110.393 8.19845,108.059 8.5,105.5C 16.9558,56.8729 44.9558,25.7063 92.5,12C 96.1135,11.0642 99.7802,10.5642 103.5,10.5 Z"/></g>
<g><path style="opacity:1" fill="#e6604e" d="M 139.5,11.5 C 180.1,20.5942 207.934,44.5942 223,83.5C 224.642,88.4023 225.809,93.4023 226.5,98.5C 225.833,98.5 225.5,98.8333 225.5,99.5C 213.287,52.6205 183.621,23.6205 136.5,12.5C 137.791,12.7373 138.791,12.404 139.5,11.5 Z"/></g>
<g><path style="opacity:1" fill="#e3523f" d="M 226.5,98.5 C 227.309,100.292 227.809,102.292 228,104.5C 228.5,111.158 228.666,117.825 228.5,124.5C 227.833,120.833 227.167,117.167 226.5,113.5C 226.46,108.807 226.127,104.141 225.5,99.5C 225.5,98.8333 225.833,98.5 226.5,98.5 Z"/></g>
<g><path style="opacity:1" fill="#e96e62" d="M 8.5,105.5 C 8.19845,108.059 8.53178,110.393 9.5,112.5C 9.5,117.5 9.5,122.5 9.5,127.5C 8.53178,129.607 8.19845,131.941 8.5,134.5C 7.16667,124.833 7.16667,115.167 8.5,105.5 Z"/></g>
<g><path style="opacity:1" fill="#eb817a" d="M 226.5,113.5 C 227.167,117.167 227.833,120.833 228.5,124.5C 228.815,128.371 228.482,132.038 227.5,135.5C 227.802,132.941 227.468,130.607 226.5,128.5C 226.5,123.5 226.5,118.5 226.5,113.5 Z"/></g>
<g><path style="opacity:1" fill="#d83124" d="M 106.5,15.5 C 161.212,14.0895 198.378,38.7562 218,89.5C 229.015,132.285 218.515,168.785 186.5,199C 149.072,228.01 109.072,232.01 66.5,211C 28.7951,187.428 11.2951,153.261 14,108.5C 23.6845,56.3158 54.5178,25.3158 106.5,15.5 Z"/></g>
<g><path style="opacity:1" fill="#fafbf9" d="M 105.5,17.5 C 157.784,15.2052 194.284,37.8718 215,85.5C 229.403,136.817 214.903,177.65 171.5,208C 132.988,228.513 95.3211,227.18 58.5,204C 18.1395,171.232 6.3062,130.065 23,80.5C 39.6962,45.2984 67.1962,24.2984 105.5,17.5 Z"/></g>
<g><path style="opacity:1" fill="#219240" d="M 198.5,119.5 C 203.179,119.334 207.845,119.501 212.5,120C 213.517,121.049 213.684,122.216 213,123.5C 210.094,126.037 206.927,128.204 203.5,130C 206.482,130.498 209.482,130.665 212.5,130.5C 212.5,131.833 212.5,133.167 212.5,134.5C 207.453,134.663 202.453,134.329 197.5,133.5C 197.343,132.127 197.51,130.793 198,129.5C 200.748,127.542 203.582,125.709 206.5,124C 203.854,123.503 201.187,123.336 198.5,123.5C 198.5,122.167 198.5,120.833 198.5,119.5 Z"/></g>
<g><path style="opacity:1" fill="#269444" d="M 23.5,123.5 C 24.8333,123.5 26.1667,123.5 27.5,123.5C 27.5,124.5 27.5,125.5 27.5,126.5C 31.1667,126.5 34.8333,126.5 38.5,126.5C 38.5,127.833 38.5,129.167 38.5,130.5C 34.8333,130.5 31.1667,130.5 27.5,130.5C 27.5,131.833 27.5,133.167 27.5,134.5C 26.1667,134.5 24.8333,134.5 23.5,134.5C 23.5,130.833 23.5,127.167 23.5,123.5 Z"/></g>
<g><path style="opacity:1" fill="#279444" d="M 24.5,106.5 C 29.5,106.5 34.5,106.5 39.5,106.5C 39.7135,108.144 39.3802,109.644 38.5,111C 36.5273,111.495 34.5273,111.662 32.5,111.5C 32.5,113.167 32.5,114.833 32.5,116.5C 34.5,116.5 36.5,116.5 38.5,116.5C 38.5,117.833 38.5,119.167 38.5,120.5C 33.4725,120.497 28.4725,120.164 23.5,119.5C 23.5,118.167 23.5,116.833 23.5,115.5C 25.5,115.5 27.5,115.5 29.5,115.5C 29.5,113.833 29.5,112.167 29.5,110.5C 27.8333,110.5 26.1667,110.5 24.5,110.5C 24.5,109.167 24.5,107.833 24.5,106.5 Z"/></g>
<g><path style="opacity:1" fill="#20903d" d="M 196.5,102.5 C 216.575,103.458 217.575,108.125 199.5,116.5C 198.22,114.276 198.553,112.276 200.5,110.5C 198.974,107.809 197.64,105.143 196.5,102.5 Z"/></g>
<g><path style="opacity:1" fill="#dcf0e4" d="M 202.5,106.5 C 209.734,107 210.067,108.333 203.5,110.5C 202.571,109.311 202.238,107.978 202.5,106.5 Z"/></g>
<g><path style="opacity:1" fill="#1c903d" d="M 27.5,91.5 C 28.5,91.5 29.5,91.5 30.5,91.5C 30.6427,93.2624 30.3094,94.9291 29.5,96.5C 30.325,97.3857 31.325,97.719 32.5,97.5C 32.5,96.1667 32.5,94.8333 32.5,93.5C 33.9778,93.238 35.3112,93.5713 36.5,94.5C 35.3192,96.198 35.3192,97.8647 36.5,99.5C 37.316,97.7127 38.316,96.0461 39.5,94.5C 40.086,94.7093 40.586,95.0426 41,95.5C 41.3834,98.6827 40.3834,101.349 38,103.5C 33.7838,102.558 29.6171,101.558 25.5,100.5C 25.7556,97.4021 26.4222,94.4021 27.5,91.5 Z"/></g>
<g><path style="opacity:1" fill="#239341" d="M 205.5,91.5 C 208.5,91.1667 209.833,92.5 209.5,95.5C 205.087,96.5377 200.754,97.8711 196.5,99.5C 194.73,98.1804 194.397,96.6804 195.5,95C 199.052,94.1225 202.386,92.9558 205.5,91.5 Z"/></g>
<g><path style="opacity:1" fill="#1a8e3a" d="M 199.5,78.5 C 200.978,78.238 202.311,78.5713 203.5,79.5C 204.706,82.0794 206.039,84.5794 207.5,87C 205.43,89.1272 203.597,88.9606 202,86.5C 198.985,87.8418 195.985,89.1752 193,90.5C 191.635,89.4071 191.301,88.0738 192,86.5C 194.667,85.1667 197.333,83.8333 200,82.5C 200.195,81.1807 200.028,79.8474 199.5,78.5 Z"/></g>
<g><path style="opacity:1" fill="#158b35" d="M 192.5,68.5 C 197.638,67.9701 200.305,70.3035 200.5,75.5C 198.362,75.297 196.695,74.297 195.5,72.5C 194.686,74.7662 194.186,77.0995 194,79.5C 187.82,82.8646 184.653,80.8646 184.5,73.5C 185.5,73.5 186.5,73.5 187.5,73.5C 187.227,76.1834 188.227,77.6834 190.5,78C 191.548,76.2438 191.548,74.4104 190.5,72.5C 190.752,70.9271 191.418,69.5938 192.5,68.5 Z"/></g>
<g><path style="opacity:1" fill="#229140" d="M 37.5,71.5 C 41.3491,71.0193 43.3491,72.686 43.5,76.5C 52.4783,77.0951 52.4783,78.5951 43.5,81C 46.8063,82.5444 47.1397,84.3778 44.5,86.5C 40.1718,84.6713 36.1718,82.338 32.5,79.5C 33.6772,76.4685 35.3438,73.8019 37.5,71.5 Z"/></g>
<g><path style="opacity:1" fill="#f8fcfa" d="M 37.5,76.5 C 38.5,76.5 39.5,76.5 40.5,76.5C 39.7542,80.31 38.7542,80.31 37.5,76.5 Z"/></g>
<g><path style="opacity:1" fill="#178d39" d="M 44.5,59.5 C 46.1033,59.3118 47.4366,59.8118 48.5,61C 45.6645,62.4399 45.1645,64.2733 47,66.5C 51.519,62.2459 52.6857,62.7459 50.5,68C 50.8333,68.5 51.1667,69 51.5,69.5C 52.8333,68.5 54.1667,67.5 55.5,66.5C 56.3081,66.8076 56.9747,67.3076 57.5,68C 56.0716,70.1847 54.4049,72.1847 52.5,74C 48.2458,72.4622 44.4125,69.9622 41,66.5C 41.8274,64.1226 42.9941,61.7892 44.5,59.5 Z"/></g>
<g><path style="opacity:1" fill="#1a8c37" d="M 189.5,59.5 C 192.076,59.7218 192.91,61.0551 192,63.5C 188.885,65.6471 186.052,68.1471 183.5,71C 181.799,71.3446 180.466,70.6779 179.5,69C 183.099,66.0483 186.433,62.8816 189.5,59.5 Z"/></g>
<g><path style="opacity:1" fill="#158c36" d="M 56.5,48.5 C 63.6853,48.8482 66.5186,52.5149 65,59.5C 63.6912,61.9757 61.8579,63.9757 59.5,65.5C 55.8333,62.5 52.5,59.1667 49.5,55.5C 51.5482,52.785 53.8816,50.4517 56.5,48.5 Z"/></g>
<g><path style="opacity:1" fill="#178d38" d="M 179.5,48.5 C 182.347,50.5135 184.68,53.0135 186.5,56C 185.658,59.625 183.325,61.4584 179.5,61.5C 178.953,67.5938 177.619,67.9272 175.5,62.5C 175.68,61.4461 176.013,60.4461 176.5,59.5C 176.167,59.1667 175.833,58.8333 175.5,58.5C 173.842,62.0425 172.175,62.2092 170.5,59C 173.322,55.3447 176.322,51.8447 179.5,48.5 Z"/></g>
<g><path style="opacity:1" fill="#d83123" d="M 111.5,48.5 C 157.851,49.8529 183.851,73.5196 189.5,119.5C 185.119,163.214 161.119,187.214 117.5,191.5C 74.1436,186.643 50.4769,162.477 46.5,119C 50.7363,79.2689 72.403,55.7689 111.5,48.5 Z"/></g>
<g><path style="opacity:1" fill="#e2f2e9" d="M 179.5,53.5 C 182.861,54.2032 183.194,55.5365 180.5,57.5C 178.358,56.5629 178.024,55.2296 179.5,53.5 Z"/></g>
<g><path style="opacity:1" fill="#eef8f2" d="M 56.5,52.5 C 60.3233,52.8183 62.1567,54.8183 62,58.5C 61.3109,59.3567 60.4776,60.0233 59.5,60.5C 58.018,58.5171 56.3513,56.6837 54.5,55C 55.3805,54.2917 56.0472,53.4584 56.5,52.5 Z"/></g>
<g><path style="opacity:1" fill="#f8f2f5" d="M 111.5,50.5 C 146.489,49.7302 170.655,65.3968 184,97.5C 192.975,132.255 182.809,159.755 153.5,180C 118.162,196.999 87.6618,190.833 62,161.5C 43.7387,133.25 44.072,105.25 63,77.5C 75.4907,61.8392 91.6574,52.8392 111.5,50.5 Z"/></g>
<g><path style="opacity:1" fill="#27156d" d="M 105.5,56.5 C 144.413,53.5169 169.579,70.5169 181,107.5C 184.738,135.507 175.238,157.673 152.5,174C 117.444,192.024 87.9436,185.524 64,154.5C 46.141,119.448 52.641,89.9477 83.5,66C 90.584,61.9504 97.9174,58.7837 105.5,56.5 Z"/></g>
<g><path style="opacity:1" fill="#8176aa" d="M 131.5,107.5 C 134.358,108.166 137.358,108.833 140.5,109.5C 140.376,110.107 140.043,110.44 139.5,110.5C 136.642,109.834 133.642,109.167 130.5,108.5C 130.624,107.893 130.957,107.56 131.5,107.5 Z"/></g>
<g><path style="opacity:1" fill="#fbfbfc" d="M 131.5,107.5 C 130.957,107.56 130.624,107.893 130.5,108.5C 133.642,109.167 136.642,109.834 139.5,110.5C 141.033,111.388 143.366,111.888 146.5,112C 146.043,112.414 145.709,112.914 145.5,113.5C 148.447,114.321 151.447,114.821 154.5,115C 153.643,115.689 152.977,116.522 152.5,117.5C 155.372,118.783 158.205,118.783 161,117.5C 161.617,118.449 161.451,119.282 160.5,120C 163.167,120.333 165.833,120.667 168.5,121C 167.007,122.156 167.174,122.99 169,123.5C 172.143,122.469 175.309,121.969 178.5,122C 170.816,131.024 161.482,137.691 150.5,142C 142.387,143.744 135.054,142.244 128.5,137.5C 125.535,142.789 121.868,147.456 117.5,151.5C 113.816,146.981 110.316,142.314 107,137.5C 101.768,142.351 95.601,144.185 88.5,143C 75.5402,137.985 65.0402,130.151 57,119.5C 61.0206,121.575 65.1873,122.242 69.5,121.5C 68.5,120.833 67.5,120.167 66.5,119.5C 67,119.167 67.5,118.833 68,118.5C 70.7917,120.062 73.6251,120.395 76.5,119.5C 75.0011,118.096 75.3344,117.43 77.5,117.5C 79.4534,118.156 81.4534,118.489 83.5,118.5C 83.67,117.178 83.3366,116.011 82.5,115C 85.2263,114.818 87.8929,114.318 90.5,113.5C 90.2907,112.914 89.9574,112.414 89.5,112C 92.8333,111.667 96.1667,111.333 99.5,111C 98.8333,110.333 98.1667,109.667 97.5,109C 100.232,108.587 102.899,107.92 105.5,107C 102.07,101.205 99.7367,95.0384 98.5,88.5C 107.314,88.6312 116.147,88.6312 125,88.5C 126.812,88.4934 128.312,89.16 129.5,90.5C 132.923,87.588 135.923,87.9213 138.5,91.5C 136.152,96.8593 133.819,102.193 131.5,107.5 Z"/></g>
<g><path style="opacity:1" fill="#1e8e3a" d="M 69.5,38.5 C 70.9953,38.4148 71.9953,39.0815 72.5,40.5C 67.1994,44.5037 67.5327,45.5037 73.5,43.5C 74.5,43.8333 75.1667,44.5 75.5,45.5C 74.1667,46.5 72.8333,47.5 71.5,48.5C 71.8076,49.3081 72.3076,49.9747 73,50.5C 74.9308,47.8953 76.7642,47.8953 78.5,50.5C 75.9906,51.9213 73.6572,53.5879 71.5,55.5C 68.8333,51.5 66.1667,47.5 63.5,43.5C 65.5193,41.8103 67.5193,40.1436 69.5,38.5 Z"/></g>
<g><path style="opacity:1" fill="#178e3a" d="M 163.5,37.5 C 168.275,38.6073 168.608,40.774 164.5,44C 167.814,47.5254 170.48,47.0254 172.5,42.5C 173.646,43.1449 174.646,43.9783 175.5,45C 173.028,48.9713 170.362,52.8046 167.5,56.5C 166.328,56.0814 165.328,55.4147 164.5,54.5C 168.516,51.2652 168.183,48.9319 163.5,47.5C 161.833,48.5 160.5,49.8333 159.5,51.5C 158.328,51.0814 157.328,50.4147 156.5,49.5C 158.888,45.4656 161.222,41.4656 163.5,37.5 Z"/></g>
<g><path style="opacity:1" fill="#198e3a" d="M 80.5,32.5 C 82.3464,32.2222 83.6798,32.8888 84.5,34.5C 82.9466,35.439 81.6133,36.6057 80.5,38C 81.8731,39.4787 83.3731,39.312 85,37.5C 85.6924,38.0253 86.1924,38.6919 86.5,39.5C 85.3947,40.8924 84.0614,42.059 82.5,43C 84.0225,44.3282 85.6892,44.1616 87.5,42.5C 88.2868,43.2421 88.9535,44.0754 89.5,45C 87.2902,46.7391 84.7902,47.9057 82,48.5C 79.0692,44.9758 76.9026,40.9758 75.5,36.5C 77.0147,34.9178 78.6814,33.5845 80.5,32.5 Z"/></g>
<g><path style="opacity:1" fill="#1b8e3a" d="M 101.5,26.5 C 102.497,26.4701 103.164,26.9701 103.5,28C 104.976,32.0981 106.642,36.0981 108.5,40C 107.5,40.5 106.5,41 105.5,41.5C 104.052,39.3333 102.885,37 102,34.5C 101.503,37.146 101.336,39.8127 101.5,42.5C 100.022,42.762 98.6888,42.4287 97.5,41.5C 96.5857,39.3359 95.419,37.3359 94,35.5C 93.9294,37.1092 94.0961,38.7759 94.5,40.5C 94.3838,42.552 93.3838,43.8853 91.5,44.5C 90.1667,39.5 90.1667,34.5 91.5,29.5C 92.4255,28.3595 93.2588,28.3595 94,29.5C 95.5862,31.6705 96.9196,34.0038 98,36.5C 98.498,33.5184 98.6646,30.5184 98.5,27.5C 99.791,27.7373 100.791,27.404 101.5,26.5 Z"/></g>
<g><path style="opacity:1" fill="#1d8e3b" d="M 150.5,32.5 C 154.122,31.924 157.122,32.924 159.5,35.5C 158.391,38.9633 156.558,39.2967 154,36.5C 150.261,36.9049 148.927,38.9049 150,42.5C 151.6,43.8659 153.433,44.8659 155.5,45.5C 151.818,48.3972 148.651,47.7306 146,43.5C 144.959,38.7325 146.459,35.0658 150.5,32.5 Z"/></g>
<g><path style="opacity:1" fill="#1b913f" d="M 123.5,25.5 C 127.271,25.9059 130.938,26.7392 134.5,28C 137.345,32.264 137.012,36.264 133.5,40C 129.848,40.4986 126.182,40.6653 122.5,40.5C 122.916,35.5068 123.249,30.5068 123.5,25.5 Z"/></g>
<g><path style="opacity:1" fill="#f3faf6" d="M 127.5,29.5 C 132.668,30.3385 133.668,32.8385 130.5,37C 129.056,37.7805 127.723,37.6139 126.5,36.5C 127.374,34.2534 127.708,31.9201 127.5,29.5 Z"/></g>
<g><path style="opacity:1" fill="#1a903c" d="M 110.5,25.5 C 113.5,25.5 116.5,25.5 119.5,25.5C 119.5,26.5 119.5,27.5 119.5,28.5C 117.833,28.5 116.167,28.5 114.5,28.5C 114.5,29.5 114.5,30.5 114.5,31.5C 116.167,31.5 117.833,31.5 119.5,31.5C 119.5,32.5 119.5,33.5 119.5,34.5C 112.833,35.1667 112.833,35.8333 119.5,36.5C 119.5,37.8333 119.5,39.1667 119.5,40.5C 116.5,40.5 113.5,40.5 110.5,40.5C 110.5,35.5 110.5,30.5 110.5,25.5 Z"/></g>
<g><path style="opacity:1" fill="#228e3b" d="M 197.5,145.5 C 198.833,145.5 200.167,145.5 201.5,145.5C 201.714,147.144 201.38,148.644 200.5,150C 202.047,150.333 203.38,149.833 204.5,148.5C 206.111,149.32 206.778,150.654 206.5,152.5C 204.801,152.34 203.134,152.506 201.5,153C 203.677,154.186 204.677,156.019 204.5,158.5C 201.671,158.675 200.004,157.342 199.5,154.5C 198.85,158.021 197.017,159.021 194,157.5C 193.333,156.833 193.333,156.167 194,155.5C 195.255,154.789 196.421,153.956 197.5,153C 195.059,152.964 193.059,152.131 191.5,150.5C 193.875,147.877 196.041,148.211 198,151.5C 197.865,149.575 197.698,147.575 197.5,145.5 Z"/></g>
<g><path style="opacity:1" fill="#198a34" d="M 35.5,144.5 C 36.5,144.5 37.5,144.5 38.5,144.5C 38.3016,146.575 38.1349,148.575 38,150.5C 40.1263,146.986 42.2929,146.82 44.5,150C 42.6241,151.017 40.6241,151.851 38.5,152.5C 39.8333,153.5 41.1667,154.5 42.5,155.5C 41.6518,157.283 40.3185,157.783 38.5,157C 36.7825,152.254 35.7825,152.421 35.5,157.5C 34.1667,157.5 32.8333,157.5 31.5,157.5C 31.4521,154.708 32.7854,152.875 35.5,152C 33.5273,151.505 31.5273,151.338 29.5,151.5C 29.2222,149.654 29.8888,148.32 31.5,147.5C 32.6199,148.833 33.9532,149.333 35.5,149C 34.2721,147.51 34.2721,146.01 35.5,144.5 Z"/></g>
<g><path style="opacity:1" fill="#178d38" d="M 46.5,165.5 C 51.4003,164.948 54.7337,166.948 56.5,171.5C 55.8551,172.646 55.0217,173.646 54,174.5C 53.4198,170.574 51.2531,169.074 47.5,170C 44.6012,173.156 44.9345,175.822 48.5,178C 46.1909,181.286 44.0243,181.119 42,177.5C 40.4742,172.239 41.9742,168.239 46.5,165.5 Z"/></g>
<g><path style="opacity:1" fill="#148d38" d="M 183.5,166.5 C 191.494,165.329 194.994,168.663 194,176.5C 192.39,178.731 190.557,180.731 188.5,182.5C 185.017,179.261 181.35,176.261 177.5,173.5C 179.523,171.147 181.523,168.814 183.5,166.5 Z"/></g>
<g><path style="opacity:1" fill="#e7f4ec" d="M 185.5,169.5 C 190.729,170.679 191.729,173.346 188.5,177.5C 186.851,176.352 185.351,175.019 184,173.5C 183.516,171.807 184.016,170.473 185.5,169.5 Z"/></g>
<g><path style="opacity:1" fill="#128b35" d="M 56.5,173.5 C 58.1958,173.685 59.5291,174.519 60.5,176C 56.1852,178.169 55.8518,180.503 59.5,183C 61.4174,182.973 63.084,182.139 64.5,180.5C 65.5,180.833 66.1667,181.5 66.5,182.5C 64.1782,186.655 61.0115,189.988 57,192.5C 55.7202,192.387 54.8869,191.72 54.5,190.5C 55.6477,188.851 56.981,187.351 58.5,186C 55.5721,181.29 52.9054,181.457 50.5,186.5C 49.354,185.855 48.354,185.022 47.5,184C 51.1074,180.902 54.1074,177.402 56.5,173.5 Z"/></g>
<g><path style="opacity:1" fill="#e55f4c" d="M 9.5,127.5 C 16.4139,180.079 45.4139,213.412 96.5,227.5C 96.5,227.833 96.5,228.167 96.5,228.5C 58.0626,220.012 30.8959,197.679 15,161.5C 11.4144,152.825 9.24772,143.825 8.5,134.5C 8.19845,131.941 8.53178,129.607 9.5,127.5 Z"/></g>
<g><path style="opacity:1" fill="#1a8e3a" d="M 173.5,177.5 C 181.656,176.821 185.156,180.488 184,188.5C 181.045,192.277 177.212,193.443 172.5,192C 167.147,186.871 167.48,182.038 173.5,177.5 Z"/></g>
<g><path style="opacity:1" fill="#f5fbf7" d="M 173.5,181.5 C 180.004,181.138 181.671,183.638 178.5,189C 173.466,188.794 171.8,186.294 173.5,181.5 Z"/></g>
<g><path style="opacity:1" fill="#e7624e" d="M 226.5,128.5 C 227.468,130.607 227.802,132.941 227.5,135.5C 219.806,180.369 194.473,210.536 151.5,226C 145.654,228.003 139.654,229.169 133.5,229.5C 130.615,229.806 127.948,229.473 125.5,228.5C 137.94,227.557 149.94,224.723 161.5,220C 199.98,201.57 221.647,171.07 226.5,128.5 Z"/></g>
<g><path style="opacity:1" fill="#22903e" d="M 159.5,187.5 C 161.5,187.5 163.5,187.5 165.5,187.5C 165.567,190.766 163.901,192.266 160.5,192C 157.737,195.648 158.57,198.148 163,199.5C 165.163,199.505 166.663,198.505 167.5,196.5C 165.997,195.948 164.331,195.948 162.5,196.5C 162.281,195.325 162.614,194.325 163.5,193.5C 165.002,192.917 166.335,192.084 167.5,191C 168.744,190.544 169.577,191.044 170,192.5C 171.144,200.527 167.644,204.027 159.5,203C 155.232,200.72 153.732,197.22 155,192.5C 156.707,190.963 158.207,189.296 159.5,187.5 Z"/></g>
<g><path style="opacity:1" fill="#198e39" d="M 80.5,191.5 C 84.7571,191.784 87.7571,193.784 89.5,197.5C 88.9292,199.741 87.5958,201.408 85.5,202.5C 83.302,210.19 81.4687,209.857 80,201.5C 79.4768,203.223 78.4768,204.556 77,205.5C 75.7202,205.387 74.8869,204.72 74.5,203.5C 76.4977,199.505 78.4977,195.505 80.5,191.5 Z"/></g>
<g><path style="opacity:1" fill="#e7f4ed" d="M 82.5,195.5 C 85.1731,195.684 85.8398,196.851 84.5,199C 83.365,199.749 82.365,199.583 81.5,198.5C 82.1272,197.583 82.4606,196.583 82.5,195.5 Z"/></g>
<g><path style="opacity:1" fill="#21903d" d="M 67.5,183.5 C 69.0898,183.628 70.4231,184.295 71.5,185.5C 70,187.833 68.5,190.167 67,192.5C 66.2797,194.112 66.4464,195.612 67.5,197C 68.1667,197.667 68.8333,197.667 69.5,197C 71.7433,194.512 73.7433,191.846 75.5,189C 77.0758,188.612 78.4091,189.112 79.5,190.5C 77.5014,192.493 76.0014,194.827 75,197.5C 69.3343,203.112 64.8343,202.112 61.5,194.5C 63.5567,190.799 65.5567,187.133 67.5,183.5 Z"/></g>
<g><path style="opacity:1" fill="#1b903d" d="M 142.5,195.5 C 144.167,195.5 145.833,195.5 147.5,195.5C 147.5,196.5 147.5,197.5 147.5,198.5C 145.654,198.222 144.32,198.889 143.5,200.5C 145.006,201.747 146.506,201.747 148,200.5C 149.939,202.46 149.439,203.793 146.5,204.5C 145.24,206.353 145.24,208.186 146.5,210C 145.5,210.5 144.5,211 143.5,211.5C 141.64,207.255 139.973,202.921 138.5,198.5C 139.624,197.141 140.958,196.141 142.5,195.5 Z"/></g>
<g><path style="opacity:1" fill="#239342" d="M 103.5,198.5 C 104.833,198.5 106.167,198.5 107.5,198.5C 105,203.837 106.667,206.17 112.5,205.5C 112.5,203.833 112.5,202.167 112.5,200.5C 113.833,200.5 115.167,200.5 116.5,200.5C 115.873,205.141 115.54,209.807 115.5,214.5C 113.712,214.785 112.045,214.452 110.5,213.5C 111.309,211.929 111.643,210.262 111.5,208.5C 107.488,207.887 105.488,209.554 105.5,213.5C 104.167,213.5 102.833,213.5 101.5,213.5C 101.842,208.452 102.508,203.452 103.5,198.5 Z"/></g>
<g><path style="opacity:1" fill="#269241" d="M 92.5,197.5 C 95.1873,197.336 97.854,197.503 100.5,198C 101.747,199.494 101.747,200.994 100.5,202.5C 95.2025,199.611 93.0359,201.277 94,207.5C 95.8254,208.103 97.6587,208.77 99.5,209.5C 95.3025,213.771 91.8025,213.105 89,207.5C 88.1822,203.469 89.3489,200.136 92.5,197.5 Z"/></g>
<g><path style="opacity:1" fill="#1c8f3b" d="M 128.5,198.5 C 136.658,197.823 140.158,201.49 139,209.5C 133.867,216.075 128.867,216.075 124,209.5C 123.333,207.5 123.333,205.5 124,203.5C 125.707,201.963 127.207,200.296 128.5,198.5 Z"/></g>
<g><path style="opacity:1" fill="#f6fbf8" d="M 129.5,202.5 C 135.488,202.664 136.821,205.164 133.5,210C 127.403,210.147 126.07,207.647 129.5,202.5 Z"/></g>
<g><path style="opacity:1" fill="#e14d3b" d="M 96.5,227.5 C 101.482,228.053 106.482,228.387 111.5,228.5C 115.833,229.167 120.167,229.833 124.5,230.5C 117.159,230.666 109.826,230.5 102.5,230C 100.292,229.809 98.2922,229.309 96.5,228.5C 96.5,228.167 96.5,227.833 96.5,227.5 Z"/></g>
<g><path style="opacity:1" fill="#ec8780" d="M 111.5,228.5 C 116.167,228.5 120.833,228.5 125.5,228.5C 127.948,229.473 130.615,229.806 133.5,229.5C 130.713,230.477 127.713,230.81 124.5,230.5C 120.167,229.833 115.833,229.167 111.5,228.5 Z"/></g>
</svg>
